999
Kitchen ML Planner - Plan généré automatiquement
0
SECTION
2
HEADER
0
ENDSEC
0
SECTION
2
TABLES
0
TABLE
2
LAYER
70
1
0
LAYER
2
ZONES
70
0
62
7
6
CONTINUOUS
0
ENDTAB
0
ENDSEC
0
SECTION
2
ENTITIES
0
LINE
8
ZONES
10
0
20
0
30
0.0
11
2000
21
0
31
0.0
0
LINE
8
ZONES
10
2000
20
0
30
0.0
11
2000
21
1000
31
0.0
0
LINE
8
ZONES
10
2000
20
1000
30
0.0
11
0
21
1000
31
0.0
0
LINE
8
ZONES
10
0
20
1000
30
0.0
11
0
21
0
31
0.0
0
TEXT
8
ZONES
10
1000.0
20
500.0
30
0.0
40
200.0
1
Réception
50
0.0
7
STANDARD
71
0
72
1
73
2
11
1000.0
21
500.0
31
0.0
0
LINE
8
ZONES
10
0
20
1000
30
0.0
11
2000
21
1000
31
0.0
0
LINE
8
ZONES
10
2000
20
1000
30
0.0
11
2000
21
2000
31
0.0
0
LINE
8
ZONES
10
2000
20
2000
30
0.0
11
0
21
2000
31
0.0
0
LINE
8
ZONES
10
0
20
2000
30
0.0
11
0
21
1000
31
0.0
0
TEXT
8
ZONES
10
1000.0
20
1500.0
30
0.0
40
200.0
1
Stockage Sec
50
0.0
7
STANDARD
71
0
72
1
73
2
11
1000.0
21
1500.0
31
0.0
0
LINE
8
ZONES
10
0
20
2000
30
0.0
11
2000
21
2000
31
0.0
0
LINE
8
ZONES
10
2000
20
2000
30
0.0
11
2000
21
3000
31
0.0
0
LINE
8
ZONES
10
2000
20
3000
30
0.0
11
0
21
3000
31
0.0
0
LINE
8
ZONES
10
0
20
3000
30
0.0
11
0
21
2000
31
0.0
0
TEXT
8
ZONES
10
1000.0
20
2500.0
30
0.0
40
200.0
1
Stockage Froid
50
0.0
7
STANDARD
71
0
72
1
73
2
11
1000.0
21
2500.0
31
0.0
0
LINE
8
ZONES
10
2000
20
0
30
0.0
11
6000
21
0
31
0.0
0
LINE
8
ZONES
10
6000
20
0
30
0.0
11
6000
21
2000
31
0.0
0
LINE
8
ZONES
10
6000
20
2000
30
0.0
11
2000
21
2000
31
0.0
0
LINE
8
ZONES
10
2000
20
2000
30
0.0
11
2000
21
0
31
0.0
0
TEXT
8
ZONES
10
4000.0
20
1000.0
30
0.0
40
200.0
1
Préparation
50
0.0
7
STANDARD
71
0
72
1
73
2
11
4000.0
21
1000.0
31
0.0
0
LINE
8
ZONES
10
6000
20
0
30
0.0
11
8000
21
0
31
0.0
0
LINE
8
ZONES
10
8000
20
0
30
0.0
11
8000
21
2000
31
0.0
0
LINE
8
ZONES
10
8000
20
2000
30
0.0
11
6000
21
2000
31
0.0
0
LINE
8
ZONES
10
6000
20
2000
30
0.0
11
6000
21
0
31
0.0
0
TEXT
8
ZONES
10
7000.0
20
1000.0
30
0.0
40
200.0
1
Grillade
50
0.0
7
STANDARD
71
0
72
1
73
2
11
7000.0
21
1000.0
31
0.0
0
LINE
8
ZONES
10
8000
20
0
30
0.0
11
10000
21
0
31
0.0
0
LINE
8
ZONES
10
10000
20
0
30
0.0
11
10000
21
1000
31
0.0
0
LINE
8
ZONES
10
10000
20
1000
30
0.0
11
8000
21
1000
31
0.0
0
LINE
8
ZONES
10
8000
20
1000
30
0.0
11
8000
21
0
31
0.0
0
TEXT
8
ZONES
10
9000.0
20
500.0
30
0.0
40
200.0
1
Friture
50
0.0
7
STANDARD
71
0
72
1
73
2
11
9000.0
21
500.0
31
0.0
0
LINE
8
ZONES
10
8000
20
1000
30
0.0
11
10000
21
1000
31
0.0
0
LINE
8
ZONES
10
10000
20
1000
30
0.0
11
10000
21
2000
31
0.0
0
LINE
8
ZONES
10
10000
20
2000
30
0.0
11
8000
21
2000
31
0.0
0
LINE
8
ZONES
10
8000
20
2000
30
0.0
11
8000
21
1000
31
0.0
0
TEXT
8
ZONES
10
9000.0
20
1500.0
30
0.0
40
200.0
1
Dressage
50
0.0
7
STANDARD
71
0
72
1
73
2
11
9000.0
21
1500.0
31
0.0
0
LINE
8
ZONES
10
2000
20
2000
30
0.0
11
6000
21
2000
31
0.0
0
LINE
8
ZONES
10
6000
20
2000
30
0.0
11
6000
21
3000
31
0.0
0
LINE
8
ZONES
10
6000
20
3000
30
0.0
11
2000
21
3000
31
0.0
0
LINE
8
ZONES
10
2000
20
3000
30
0.0
11
2000
21
2000
31
0.0
0
TEXT
8
ZONES
10
4000.0
20
2500.0
30
0.0
40
200.0
1
Plonge
50
0.0
7
STANDARD
71
0
72
1
73
2
11
4000.0
21
2500.0
31
0.0
0
LINE
8
ZONES
10
6000
20
2000
30
0.0
11
10000
21
2000
31
0.0
0
LINE
8
ZONES
10
10000
20
2000
30
0.0
11
10000
21
3000
31
0.0
0
LINE
8
ZONES
10
10000
20
3000
30
0.0
11
6000
21
3000
31
0.0
0
LINE
8
ZONES
10
6000
20
3000
30
0.0
11
6000
21
2000
31
0.0
0
TEXT
8
ZONES
10
8000.0
20
2500.0
30
0.0
40
200.0
1
Bar
50
0.0
7
STANDARD
71
0
72
1
73
2
11
8000.0
21
2500.0
31
0.0
0
ENDSEC
0
EOF